<?xml version="1.0" encoding="utf-8"?>
<!-- Generator: Adobe Illustrator 23.0.2, SVG Export Plug-In . SVG Version: 6.00 Build 0)  -->
<svg version="1.1" id="图层_1" xmlns="http://www.w3.org/2000/svg" xmlns:xlink="http://www.w3.org/1999/xlink" x="0px" y="0px"
	 viewBox="0 0 60 60" style="enable-background:new 0 0 60 60;" xml:space="preserve">
<style type="text/css">
	.st0{fill:none;}
	.st1{fill:#FFFFFF;}
</style>
<rect x="314" y="-441" class="st0" width="771.84" height="629.76"/>
<g>
	<path class="st1" d="M21.67,6.76c-11.1,0-20.2,7.57-20.2,17.18c0,5.55,3.03,10.1,8.08,13.63l-2.02,6.08l7.06-3.54
		c2.53,0.5,4.55,1.01,7.07,1.01c0.63,0,1.26-0.03,1.89-0.08c-0.39-1.35-0.62-2.76-0.62-4.23c0-8.82,7.58-15.98,17.17-15.98
		c0.65,0,1.3,0.05,1.94,0.12C40.29,12.81,31.6,6.76,21.67,6.76L21.67,6.76z M15.11,20.4c-1.51,0-3.04-1.01-3.04-2.53
		c0-1.52,1.53-2.52,3.04-2.52c1.51,0,2.52,1,2.52,2.52C17.63,19.38,16.62,20.4,15.11,20.4L15.11,20.4z M29.24,20.4
		c-1.51,0-3.03-1.01-3.03-2.53c0-1.52,1.52-2.52,3.03-2.52c1.52,0,2.53,1,2.53,2.52C31.77,19.38,30.76,20.4,29.24,20.4L29.24,20.4z
		 M29.24,20.4"/>
	<path class="st1" d="M58.53,36.56c0-8.07-8.08-14.65-17.15-14.65c-9.61,0-17.18,6.58-17.18,14.65c0,8.09,7.57,14.65,17.18,14.65
		c2.01,0,4.04-0.51,6.06-1.01l5.54,3.03l-1.52-5.05C55.51,45.15,58.53,41.12,58.53,36.56L58.53,36.56z M35.81,34.04
		c-1.01,0-2.02-1-2.02-2.02c0-1.01,1.01-2.02,2.02-2.02c1.53,0,2.53,1.01,2.53,2.02C38.33,33.04,37.33,34.04,35.81,34.04
		L35.81,34.04z M46.92,34.04c-1,0-2.01-1-2.01-2.02c0-1.01,1.01-2.02,2.01-2.02c1.51,0,2.53,1.01,2.53,2.02
		C49.44,33.04,48.43,34.04,46.92,34.04L46.92,34.04z M46.92,34.04"/>
</g>
</svg>
