<?xml version="1.0" encoding="utf-8"?>
<!-- Generator: Adobe Illustrator 23.0.2, SVG Export Plug-In . SVG Version: 6.00 Build 0)  -->
<svg version="1.1" id="图层_1" xmlns="http://www.w3.org/2000/svg" xmlns:xlink="http://www.w3.org/1999/xlink" x="0px" y="0px"
	 viewBox="0 0 60 60" style="enable-background:new 0 0 60 60;" xml:space="preserve">
<style type="text/css">
	.st0{fill:none;}
	.st1{fill:#FFFFFF;}
</style>
<rect x="314" y="-441" class="st0" width="771.84" height="629.76"/>
<path class="st1" d="M6.61,14.19c0,0,4.11-8.74,11.06,0c6.94,8.75,0,11.32,0,11.32s-4.62,4.38-1.03,7.21
	c3.6,2.82,12.35,10.54,12.35,10.54s3.47,4.62,7.19,1.28c4.63-3.85,6.43-4.49,10.03-1.8c6.28,4.68,8.24,9.39-1.27,13.12
	C34.39,61,15.62,43.25,15.62,43.25S-2.9,25.51,6.61,14.19z M30.53,18.72c0,0-3.47,0.37-2.84-3.25c0.29-1.64,3.09-2.18,5.66-1.4
	c2.59,0.77,12.22,5.01,12.61,15.82c0,0-0.71,3.03-2.97,2.43c-2.43-0.65-1.79-5.24-1.93-6.14C40.94,25.28,37.61,18.33,30.53,18.72z
	 M37.21,9.33c0,0-4.24,0.44-3.46-3.96c0.35-2.02,3.78-2.68,6.94-1.74c3.15,0.95,14.95,6.14,15.42,19.36c0,0-1.01,4.13-3.61,3
	c-2.27-1-2.39-6.58-2.54-7.68C49.79,17.21,45.89,8.86,37.21,9.33z"/>
</svg>
